<svg width="40" height="40" viewBox="0 0 40 40" fill="none" xmlns="http://www.w3.org/2000/svg">
<path fill-rule="evenodd" clip-rule="evenodd" d="M15.9086 14.4047C16.5811 16.8344 15.8247 19.369 14.1675 20.9314C13.8533 21.2276 13.752 21.7065 13.9989 22.0609C14.5243 22.8152 15.122 23.5323 15.7921 24.2029C16.4612 24.8725 17.1765 25.4698 17.9291 25.9951C18.2844 26.2431 18.7647 26.1402 19.0605 25.8235C20.6202 24.153 23.1623 23.3884 25.5985 24.0636C28.8824 24.9739 30.7306 28.1553 29.7267 31.1697C26.7849 40.0029 15.4591 31.2476 12.1058 27.8919C8.67157 24.455 0.0508784 13.1942 8.80792 10.2735C11.82 9.26883 14.9991 11.1185 15.9086 14.4047Z" stroke="white" stroke-width="2"/>
</svg>
